<!-- <svg xmlns="http://www.w3.org/2000/svg" viewBox="0 0 841.9 595.3"><g fill="#61DAFB"><path d="M666.3 296.5c0-32.5-40.7-63.3-103.1-82.4 14.4-63.6 8-114.2-20.2-130.4-6.5-3.8-14.1-5.6-22.4-5.6v22.3c4.6 0 8.3.9 11.4 2.6 13.6 7.8 19.5 37.5 14.9 75.7-1.1 9.4-2.9 19.3-5.1 29.4-19.6-4.8-41-8.5-63.5-10.9-13.5-18.5-27.5-35.3-41.6-50 32.6-30.3 63.2-46.9 84-46.9V78c-27.5 0-63.5 19.6-99.9 53.6-36.4-33.8-72.4-53.2-99.9-53.2v22.3c20.7 0 51.4 16.5 84 46.6-14 14.7-28 31.4-41.3 49.9-22.6 2.4-44 6.1-63.6 11-2.3-10-4-19.7-5.2-29-4.7-38.2 1.1-67.9 14.6-75.8 3-1.8 6.9-2.6 11.5-2.6V78.5c-8.4 0-16 1.8-22.6 5.6-28.1 16.2-34.4 66.7-19.9 130.1-62.2 19.2-102.7 49.9-102.7 82.3 0 32.5 40.7 63.3 103.1 82.4-14.4 63.6-8 114.2 20.2 130.4 6.5 3.8 14.1 5.6 22.5 5.6 27.5 0 63.5-19.6 99.9-53.6 36.4 33.8 72.4 53.2 99.9 53.2 8.4 0 16-1.8 22.6-5.6 28.1-16.2 34.4-66.7 19.9-130.1 62-19.1 102.5-49.9 102.5-82.3zm-130.2-66.7c-3.7 12.9-8.3 26.2-13.5 39.5-4.1-8-8.4-16-13.1-24-4.6-8-9.5-15.8-14.4-23.4 14.2 2.1 27.9 4.7 41 7.9zm-45.8 106.5c-7.8 13.5-15.8 26.3-24.1 38.2-14.9 1.3-30 2-45.2 2-15.1 0-30.2-.7-45-1.9-8.3-11.9-16.4-24.6-24.2-38-7.6-13.1-14.5-26.4-20.8-39.8 6.2-13.4 13.2-26.8 20.7-39.9 7.8-13.5 15.8-26.3 24.1-38.2 14.9-1.3 30-2 45.2-2 15.1 0 30.2.7 45 1.9 8.3 11.9 16.4 24.6 24.2 38 7.6 13.1 14.5 26.4 20.8 39.8-6.3 13.4-13.2 26.8-20.7 39.9zm32.3-13c5.4 13.4 10 26.8 13.8 39.8-13.1 3.2-26.9 5.9-41.2 8 4.9-7.7 9.8-15.6 14.4-23.7 4.6-8 8.9-16.1 13-24.1zM421.2 430c-9.3-9.6-18.6-20.3-27.8-32 9 .4 18.2.7 27.5.7 9.4 0 18.7-.2 27.8-.7-9 11.7-18.3 22.4-27.5 32zm-74.4-58.9c-14.2-2.1-27.9-4.7-41-7.9 3.7-12.9 8.3-26.2 13.5-39.5 4.1 8 8.4 16 13.1 24 4.7 8 9.5 15.8 14.4 23.4zM420.7 163c9.3 9.6 18.6 20.3 27.8 32-9-.4-18.2-.7-27.5-.7-9.4 0-18.7.2-27.8.7 9-11.7 18.3-22.4 27.5-32zm-74 58.9c-4.9 7.7-9.8 15.6-14.4 23.7-4.6 8-8.9 16-13 24-5.4-13.4-10-26.8-13.8-39.8 13.1-3.1 26.9-5.8 41.2-7.9zm-90.5 125.2c-35.4-15.1-58.3-34.9-58.3-50.6 0-15.7 22.9-35.6 58.3-50.6 8.6-3.7 18-7 27.7-10.1 5.7 19.6 13.2 40 22.5 60.9-9.2 20.8-16.6 41.1-22.2 60.6-9.9-3.1-19.3-6.5-28-10.2zM310 490c-13.6-7.8-19.5-37.5-14.9-75.7 1.1-9.4 2.9-19.3 5.1-29.4 19.6 4.8 41 8.5 63.5 10.9 13.5 18.5 27.5 35.3 41.6 50-32.6 30.3-63.2 46.9-84 46.9-4.5-.1-8.3-1-11.3-2.7zm237.2-76.2c4.7 38.2-1.1 67.9-14.6 75.8-3 1.8-6.9 2.6-11.5 2.6-20.7 0-51.4-16.5-84-46.6 14-14.7 28-31.4 41.3-49.9 22.6-2.4 44-6.1 63.6-11 2.3 10.1 4.1 19.8 5.2 29.1zm38.5-66.7c-8.6 3.7-18 7-27.7 10.1-5.7-19.6-13.2-40-22.5-60.9 9.2-20.8 16.6-41.1 22.2-60.6 9.9 3.1 19.3 6.5 28.1 10.2 35.4 15.1 58.3 34.9 58.3 50.6-.1 15.7-23 35.6-58.4 50.6zM320.8 78.4z"/><circle cx="420.9" cy="296.5" r="45.7"/><path d="M520.5 78.1z"/></g></svg> -->

<svg
    width="800px"
    height="800px"
    viewBox="0 0 1024 1024"
    className="icon"
    version="1.1"
    xmlns="http://www.w3.org/2000/svg"
    {...props}
  >
    <path
      d="M653.5 684.6H87.4c-13.1 0-23.9-10.7-23.9-23.9 0-13.1 10.7-23.9 23.9-23.9h566.1c13.1 0 23.9 10.7 23.9 23.9s-10.8 23.9-23.9 23.9zM936.6 774.1H370.5c-13.1 0-23.9-10.7-23.9-23.9 0-13.1 10.7-23.9 23.9-23.9h566.1c13.1 0 23.9 10.7 23.9 23.9-0.1 13.1-10.8 23.9-23.9 23.9zM722.8 863.5h-566c-13.1 0-23.9-10.7-23.9-23.9 0-13.1 10.7-23.9 23.9-23.9h566.1c13.1 0 23.9 10.7 23.9 23.9-0.1 13.2-10.8 23.9-24 23.9z"
      fill="#C8102E"  // Red color
    />
    <path
      d="M513.5 301.9c-13.4 0-24.4-11-24.4-24.4v-92.6c0-13.4 11-24.4 24.4-24.4 13.4 0 24.4 11 24.4 24.4v92.6c0 13.4-10.9 24.4-24.4 24.4zM793.2 581.6c0 13.4 11 24.4 24.4 24.4h92.6c13.4 0 24.4-11 24.4-24.4 0-13.4-11-24.4-24.4-24.4h-92.6c-13.4 0-24.4 11-24.4 24.4zM233.5 581.6c0 13.4-11 24.4-24.4 24.4h-92.6c-13.4 0-24.4-11-24.4-24.4 0-13.4 11-24.4 24.4-24.4h92.6c13.4 0 24.4 11 24.4 24.4zM713.5 384.8c-9.5-9.5-9.5-25 0-34.5l53.8-53.8c9.5-9.5 25-9.5 34.5 0s9.5 25 0 34.5L748 384.8c-9.5 9.5-25 9.5-34.5 0zM313.3 384.8c9.5-9.5 9.5-25 0-34.5l-53.8-53.8c-9.5-9.5-25-9.5-34.5 0s-9.5 25 0 34.5l53.8 53.8c9.5 9.5 25 9.5 34.5 0z"
      fill="#012169"  // Blue color
    />
    <path
      d="M716.6 625.8c2.4-12.6 3.7-25.6 3.7-38.8 0-113.9-92.3-206.2-206.2-206.2-113.9 0-206.2 92.3-206.2 206.2 0 13.3 1.3 26.3 3.7 38.8h405z"
      fill="#FEDF00"  // Yellow color
    />
    <path
      d="M374.8 625.8c-25-31.7-43.5-68-55-107.8-7.6 21.6-11.8 44.8-11.8 68.9 0 13.3 1.3 26.3 3.7 38.8h63.1z"
      fill="#C8102E"  // Red color
    />
    <path
      d="M697.8 582.5c0 14.9-1.8 29.4-5.2 43.3h43.2c2.7-14 4.2-28.5 4.2-43.3 0-13.4-1.2-26.9-3.5-40-2-11.5-13-19.1-24.5-17.1s-19.1 13-17.1 24.5c1.9 10.7 2.9 21.6 2.9 32.6zM332.7 625.8c-3.3-13.9-5.2-28.4-5.2-43.3 0-102.1 83-185.1 185.1-185.1 22.7 0 44.8 4.1 65.8 12 10.9 4.1 23.1-1.3 27.2-12.2 4.1-10.9-1.3-23.1-12.2-27.2-25.8-9.8-53-14.8-80.8-14.8-125.4 0-227.3 102-227.3 227.3 0 14.8 1.5 29.3 4.2 43.3h43.2z"
      fill="#012169"  // Blue color
    />
</svg>